<svg width="34" height="60" viewBox="0 0 34 60" fill="none" xmlns="http://www.w3.org/2000/svg" xmlns:xlink="http://www.w3.org/1999/xlink">
<path d="M32.92,5.035C34.091,3.863 34.091,1.964 32.92,0.792C31.748,-0.379 29.849,-0.379 28.677,0.792L32.92,5.035ZM3.885,29.827L1.763,27.706L-0.358,29.827L1.763,31.948L3.885,29.827ZM28.677,58.862C29.849,60.034 31.748,60.034 32.92,58.862C34.091,57.69 34.091,55.791 32.92,54.619L28.677,58.862ZM28.677,0.792L1.763,27.706L6.006,31.948L32.92,5.035L28.677,0.792ZM1.763,31.948L28.677,58.862L32.92,54.619L6.006,27.706L1.763,31.948Z" fill="#FFFFFF"/>
</svg>
