<svg width="34" height="60" viewBox="0 0 34 60" fill="none" xmlns="http://www.w3.org/2000/svg" xmlns:xlink="http://www.w3.org/1999/xlink">
<path d="M32.92,5.035C34.091,3.864 34.091,1.964 32.92,0.793C31.748,-0.379 29.849,-0.379 28.677,0.793L32.92,5.035ZM3.885,29.828L1.763,27.706L-0.358,29.828L1.763,31.949L3.885,29.828ZM28.677,58.862C29.849,60.034 31.748,60.034 32.92,58.862C34.091,57.691 34.091,55.791 32.92,54.62L28.677,58.862ZM28.677,0.793L1.763,27.706L6.006,31.949L32.92,5.035L28.677,0.793ZM1.763,31.949L28.677,58.862L32.92,54.62L6.006,27.706L1.763,31.949Z" fill="#FFFFFF"/>
</svg>
